<svg width="26" height="23" viewBox="0 0 26 23" fill="none" xmlns="http://www.w3.org/2000/svg">
<path d="M10.9377 22.4379C13.8386 22.4379 16.6206 21.2855 18.6718 19.2343C20.723 17.1831 21.8754 14.4011 21.8754 11.5002C21.8754 8.59934 20.723 5.81729 18.6718 3.76608C16.6206 1.71486 13.8386 0.5625 10.9377 0.5625C8.03684 0.5625 5.25479 1.71486 3.20358 3.76608C1.15236 5.81729 0 8.59934 0 11.5002C0 14.4011 1.15236 17.1831 3.20358 19.2343C5.25479 21.2855 8.03684 22.4379 10.9377 22.4379Z" fill="#D8D8D8"/>
<path d="M10.9377 22.4379C13.8386 22.4379 16.6206 21.2855 18.6718 19.2343C20.723 17.1831 21.8754 14.4011 21.8754 11.5002C21.8754 8.59934 20.723 5.81729 18.6718 3.76608C16.6206 1.71486 13.8386 0.5625 10.9377 0.5625C8.03684 0.5625 5.25479 1.71486 3.20358 3.76608C1.15236 5.81729 0 8.59934 0 11.5002C0 14.4011 1.15236 17.1831 3.20358 19.2343C5.25479 21.2855 8.03684 22.4379 10.9377 22.4379Z" fill="#BBA9D1"/>
<path d="M8.66419 15.5892H8.45637C8.41854 15.5944 8.38015 15.5944 8.34231 15.5892C7.98918 15.4579 6.19071 14.772 4.98444 14.4345C4.91047 14.4135 4.84433 14.3712 4.7943 14.3128C4.74427 14.2545 4.71257 14.1826 4.70318 14.1063C4.65514 13.8331 4.71509 13.5519 4.87037 13.3219C4.93015 13.2404 5.00856 13.1743 5.09907 13.1291C5.18958 13.084 5.28957 13.0612 5.39069 13.0626C5.49382 13.0626 5.59851 13.0782 5.69695 13.1141C5.93602 13.2079 6.15946 13.3391 6.35634 13.5048L6.4454 13.5673L7.00166 13.9579C7.20948 14.1016 7.39229 14.2266 7.52042 14.3251L8.82044 14.8454C8.99701 14.9235 9.72984 15.2563 9.68921 15.4392C9.64702 15.6204 8.86107 15.6048 8.68607 15.6095L8.66419 15.5892Z" fill="#FEF2FF"/>
<path d="M22.6145 20.985C20.7507 20.9497 18.8921 20.7779 17.0534 20.4709H16.9487C15.5587 20.2914 14.1815 20.0242 12.8252 19.6709C11.6252 19.3334 10.4408 18.8928 9.29392 18.4709L8.78453 18.2865C7.85489 17.9489 6.92979 17.5988 6.00948 17.2365L5.70792 17.1177C5.22552 16.9408 4.75479 16.7336 4.29851 16.4974C3.66882 16.1536 3.47663 15.713 3.75163 15.1911V15.1489C3.83882 14.9877 3.97153 14.8556 4.13323 14.7692C4.29493 14.6828 4.47848 14.6458 4.66102 14.663H4.73134C4.82352 14.6567 4.91415 14.6567 5.00634 14.663C6.0048 14.7646 8.89391 15.7911 9.46423 15.9958L11.3283 16.0583H11.3721L15.5893 16.1896C15.2612 15.913 14.4331 15.4208 12.4143 14.9349C12.0299 14.8411 11.6799 14.7396 11.5971 14.4786C11.5359 14.278 11.5384 14.0633 11.6041 13.8641C11.6699 13.6649 11.7957 13.4909 11.9643 13.3661C12.2299 13.2192 12.5393 13.152 12.8471 13.1755C13.4071 13.1756 13.9632 13.2691 14.4924 13.452C14.9315 13.5927 15.3862 13.6864 15.8472 13.7333C16.6003 13.8364 17.3456 13.9911 18.0738 14.2021C20.4254 14.7911 20.8801 15.8927 21.1769 16.5599C21.0832 16.288 21.1769 16.488 21.2207 16.3849L21.2863 16.2974H21.4457C21.5133 16.3026 21.5812 16.3026 21.6488 16.2974C22.0551 16.2974 22.8207 16.2615 22.8332 16.2615C23.0254 16.2615 23.9301 16.0521 23.9301 16.2208C24.0128 17.826 23.6505 19.4227 22.8832 20.835C22.8595 20.8752 22.8269 20.9096 22.7879 20.9353C22.7489 20.961 22.7046 20.9775 22.6582 20.9834H22.6145V20.985Z" fill="#EAE2F3"/>
<path d="M19.0691 14.6094C19.0912 14.6221 19.1162 14.6288 19.1417 14.6288C19.1673 14.6288 19.1923 14.6221 19.2144 14.6094H19.0691Z" fill="#D67676"/>
<path fill-rule="evenodd" clip-rule="evenodd" d="M8.03454 4.58489C7.61822 4.15751 7.04921 3.91297 6.45262 3.90506C5.85604 3.89715 5.28073 4.12651 4.85323 4.5427L4.81729 4.58489C4.39019 5.02266 4.15112 5.61004 4.15112 6.22164C4.15112 6.83324 4.39019 7.42062 4.81729 7.85839L8.28142 11.3725L11.7534 7.8537C12.1802 7.41672 12.4191 6.83012 12.4191 6.2193C12.4191 5.60847 12.1802 5.02187 11.7534 4.58489C11.5454 4.36924 11.2963 4.19761 11.0207 4.08019C10.7451 3.96276 10.4487 3.90195 10.1492 3.90137C9.84963 3.90079 9.55302 3.96044 9.27698 4.07679C9.00094 4.19314 8.75112 4.36381 8.54236 4.57864L8.28767 4.83958L8.03298 4.58489H8.03454Z" fill="#ECAA96"/>
<path d="M24.8801 16.5758C25.0614 16.7008 25.0692 17.9867 24.677 19.118C24.2864 20.2493 22.9895 21.5759 22.7801 21.7556C22.5723 21.9352 15.1972 20.9399 13.4674 20.668C11.7377 20.3962 3.65476 16.6242 3.33132 16.4523C3.00631 16.2805 2.97662 15.0492 3.90476 14.7945C4.83134 14.5382 8.35797 16.0539 9.84862 16.1742C11.3393 16.2961 13.8128 16.4523 15.5768 16.4523C17.3409 16.4523 13.5393 15.3851 12.9268 15.1711C12.3127 14.9523 11.3096 14.6804 11.2346 14.1679C11.1611 13.6554 11.9174 13.132 12.4205 12.9991C12.9237 12.8663 13.6331 13.1335 15.5768 13.5538C17.5206 13.9742 17.8394 13.7335 19.4019 14.3367C20.9644 14.9398 21.702 15.8492 21.8754 16.1742C22.0473 16.5008 24.6989 16.4523 24.8801 16.5758V16.5758Z" stroke="#493D57"/>
<path d="M4.80165 14.7693C4.44696 13.8099 4.97666 13.2005 5.60792 13.0755C6.23762 12.9521 7.44858 13.7271 8.29078 14.5084C8.96892 15.1349 9.52049 15.4803 11.258 16.2584" stroke="#493D57"/>
<path d="M8.16419 4.26525C7.6993 3.81528 7.07634 3.56579 6.42936 3.57047C5.78239 3.57514 5.1631 3.83361 4.70476 4.29025C4.24618 4.74726 3.98506 5.36586 3.97747 6.01323C3.96987 6.66061 4.2164 7.28516 4.66413 7.75281L8.43764 11.4998L12.2127 7.74812C12.5544 7.40202 12.7862 6.96271 12.8791 6.48533C12.972 6.00794 12.9219 5.51375 12.7349 5.06477C12.548 4.61579 12.2326 4.23203 11.8284 3.96164C11.4241 3.69125 10.949 3.54628 10.4627 3.54492C9.80954 3.54805 9.18452 3.81055 8.72514 4.27619L8.43764 4.5465L8.16419 4.26525V4.26525Z" stroke="#77280C" stroke-linecap="round" stroke-linejoin="round"/>
</svg>
