<svg width="25" height="25" viewBox="0 0 25 25" fill="none" xmlns="http://www.w3.org/2000/svg">
<mask id="mask0_4488_9122" style="mask-type:alpha" maskUnits="userSpaceOnUse" x="1" y="1" width="23" height="23">
<path d="M23.4375 12.5C23.4375 6.45939 18.5406 1.5625 12.5 1.5625C6.45939 1.5625 1.5625 6.45939 1.5625 12.5C1.5625 18.5406 6.45939 23.4375 12.5 23.4375C18.5406 23.4375 23.4375 18.5406 23.4375 12.5Z" fill="white"/>
</mask>
<g mask="url(#mask0_4488_9122)">
<path d="M23.4375 12.5C23.4375 6.45939 18.5406 1.5625 12.5 1.5625C6.45939 1.5625 1.5625 6.45939 1.5625 12.5C1.5625 18.5406 6.45939 23.4375 12.5 23.4375C18.5406 23.4375 23.4375 18.5406 23.4375 12.5Z" fill="#D8D8D8"/>
<path d="M12.5 23.4375C18.5406 23.4375 23.4375 18.5406 23.4375 12.5C23.4375 6.45939 18.5406 1.5625 12.5 1.5625C6.45939 1.5625 1.5625 6.45939 1.5625 12.5C1.5625 18.5406 6.45939 23.4375 12.5 23.4375Z" fill="#6DAE4F"/>
<path d="M12.5 1.5625C15.4008 1.5625 18.1828 2.71484 20.234 4.76602C22.2852 6.8172 23.4375 9.59919 23.4375 12.5C23.4375 15.4008 22.2852 18.1828 20.234 20.234C18.1828 22.2852 15.4008 23.4375 12.5 23.4375C9.59919 23.4375 6.8172 22.2852 4.76602 20.234C2.71484 18.1828 1.5625 15.4008 1.5625 12.5C1.5625 9.59919 2.71484 6.8172 4.76602 4.76602C6.8172 2.71484 9.59919 1.5625 12.5 1.5625ZM12.5 0C9.18479 0 6.00537 1.31696 3.66117 3.66117C1.31696 6.00537 0 9.18479 0 12.5C0 15.8152 1.31696 18.9946 3.66117 21.3388C6.00537 23.683 9.18479 25 12.5 25C15.8152 25 18.9946 23.683 21.3388 21.3388C23.683 18.9946 25 15.8152 25 12.5C25 9.18479 23.683 6.00537 21.3388 3.66117C18.9946 1.31696 15.8152 0 12.5 0V0Z" fill="white"/>
<path d="M18.9577 14.4125C18.9293 13.1848 18.7402 11.9661 18.3952 10.7875C17.4495 10.0274 16.7306 9.02204 16.3171 7.88126C16.0671 7.05314 15.8952 6.75626 15.1609 6.74064C15.0114 6.75423 14.8662 6.79759 14.7337 6.86817C14.6013 6.93875 14.4843 7.03512 14.3896 7.1516C14.295 7.26808 14.2246 7.40232 14.1826 7.54642C14.1407 7.69052 14.128 7.84155 14.1452 7.99064C14.1546 8.36564 14.1859 8.7422 14.239 9.11564C14.4531 10.1391 14.7546 11.1438 15.1452 12.1156L8.114 6.77189C7.99671 6.65764 7.85679 6.56924 7.70325 6.51238C7.5497 6.45552 7.38595 6.43147 7.22254 6.44178C7.05914 6.45208 6.8997 6.49651 6.75452 6.57221C6.60934 6.64791 6.48163 6.75319 6.37962 6.88126C6.30209 7.01088 6.25144 7.15478 6.23071 7.30438C6.20998 7.45398 6.21959 7.60623 6.25896 7.75205C6.29833 7.89786 6.36665 8.03425 6.45987 8.15309C6.55308 8.27193 6.66926 8.37079 6.8015 8.44376L10.3171 11.1L11.239 11.975L5.66087 7.74064C5.54906 7.62787 5.41433 7.54043 5.26581 7.48422C5.11728 7.42801 4.95842 7.40434 4.79996 7.41481C4.64151 7.42528 4.48714 7.46965 4.34731 7.54492C4.20748 7.62019 4.08543 7.72461 3.98943 7.85111C3.89342 7.97761 3.8257 8.12324 3.79083 8.27817C3.75596 8.4331 3.75475 8.59371 3.7873 8.74914C3.81985 8.90458 3.88539 9.05121 3.97949 9.17913C4.07359 9.30706 4.19406 9.41328 4.33275 9.49064L7.84837 12.1469L9.95775 13.7094L5.39525 10.2875C5.27796 10.1733 5.13804 10.0849 4.9845 10.028C4.83095 9.97115 4.6672 9.9471 4.50379 9.9574C4.34039 9.96771 4.18095 10.0121 4.03577 10.0878C3.89059 10.1635 3.76288 10.2688 3.66087 10.3969C3.1765 11.0219 3.56712 11.6625 4.06712 12.0531L7.58275 14.6938L9.34837 16.0219L5.83275 13.3656C5.72444 13.2477 5.59283 13.1536 5.44624 13.0892C5.29966 13.0248 5.14129 12.9915 4.98119 12.9915C4.82108 12.9915 4.66271 13.0248 4.51613 13.0892C4.36954 13.1536 4.23793 13.2477 4.12962 13.3656C4.03372 13.4993 3.96703 13.6516 3.93389 13.8128C3.90075 13.9739 3.9019 14.1402 3.93727 14.3008C3.97265 14.4615 4.04145 14.6129 4.1392 14.7452C4.23694 14.8775 4.36145 14.9878 4.50462 15.0688L10.9109 19.7563C11.839 20.4547 14.1452 21.0578 15.1609 20.175" stroke="#165209" stroke-width="1.5" stroke-linecap="round" stroke-linejoin="round"/>
<path fill-rule="evenodd" clip-rule="evenodd" d="M19.7078 15.475L19.0516 14.8969C18.9662 13.7469 18.6972 12.618 18.2547 11.5531C17.3399 10.4801 16.6921 9.20576 16.3641 7.83439C16.1141 7.00626 15.9422 6.70939 15.2078 6.69376C15.0583 6.70735 14.9131 6.75072 14.7806 6.8213C14.6482 6.89187 14.5312 6.98824 14.4366 7.10472C14.3419 7.22121 14.2715 7.35545 14.2296 7.49954C14.1876 7.64364 14.1749 7.79468 14.1922 7.94376C14.2016 8.31876 14.2328 8.69533 14.2859 9.06876C14.4656 10.0547 14.7547 11.0188 15.1453 11.9438L14.8484 11.7719L8.11405 6.60001C7.99677 6.48577 7.85684 6.39736 7.7033 6.34051C7.54976 6.28365 7.38601 6.2596 7.2226 6.2699C7.05919 6.28021 6.89976 6.32464 6.75457 6.40034C6.60939 6.47603 6.48168 6.58131 6.37968 6.70939C6.28877 6.84299 6.22729 6.99439 6.19931 7.15354C6.17134 7.3127 6.17749 7.47599 6.21738 7.63258C6.25727 7.78918 6.32998 7.93551 6.43069 8.06189C6.5314 8.18827 6.65781 8.2918 6.80155 8.36564L10.2391 11.0063L11.2391 11.8031L5.66093 7.56876C5.54469 7.45362 5.40562 7.36409 5.25269 7.30594C5.09975 7.24779 4.93634 7.22231 4.77296 7.23114C4.60958 7.23997 4.44986 7.28292 4.30408 7.35721C4.15831 7.43151 4.0297 7.53551 3.92655 7.66251C3.83749 7.79589 3.77715 7.94635 3.74936 8.10431C3.72158 8.26227 3.72696 8.42428 3.76517 8.58005C3.80338 8.73581 3.87357 8.88193 3.9713 9.0091C4.06902 9.13628 4.19213 9.24173 4.3328 9.31876L7.84843 11.975L9.9578 13.5375L5.3953 10.1313C5.28028 10.0138 5.14155 9.9223 4.98836 9.86273C4.83517 9.80316 4.67104 9.77694 4.50691 9.78581C4.34278 9.79468 4.18243 9.83844 4.03655 9.91418C3.89068 9.98991 3.76262 10.0959 3.66093 10.225C3.56945 10.3576 3.5071 10.5081 3.47799 10.6666C3.44889 10.8251 3.45368 10.9879 3.49207 11.1444C3.53045 11.3009 3.60154 11.4474 3.70067 11.5744C3.7998 11.7015 3.92471 11.806 4.06718 11.8813L7.5828 14.5219L9.34843 15.85L5.8328 13.2094C5.72719 13.0871 5.59646 12.9889 5.44952 12.9216C5.30257 12.8544 5.14285 12.8196 4.98124 12.8196C4.81963 12.8196 4.65991 12.8544 4.51296 12.9216C4.36602 12.9889 4.23529 13.0871 4.12968 13.2094C4.03403 13.3418 3.96752 13.4929 3.93451 13.6529C3.90151 13.8128 3.90276 13.9779 3.93819 14.1374C3.97361 14.2968 4.04242 14.4469 4.14006 14.5778C4.2377 14.7087 4.36197 14.8175 4.50468 14.8969L10.9109 19.7563C11.3705 20.1021 11.8956 20.351 12.4542 20.488C13.0128 20.625 13.5935 20.6471 14.1609 20.5531C15.0016 21.0406 15.7359 21.0406 16.3641 20.5531C17.3047 19.8203 16.9953 19.7547 17.6922 18.7875C18.4809 17.7588 19.1566 16.6482 19.7078 15.475Z" fill="#DCF0CB"/>
<path d="M18.9577 14.4125C18.9293 13.1848 18.7402 11.9661 18.3952 10.7875C17.4495 10.0274 16.7306 9.02204 16.3171 7.88126C16.0671 7.05314 15.8952 6.75626 15.1609 6.74064C15.0114 6.75423 14.8662 6.79759 14.7337 6.86817C14.6013 6.93875 14.4843 7.03512 14.3896 7.1516C14.295 7.26808 14.2246 7.40232 14.1826 7.54642C14.1407 7.69052 14.128 7.84155 14.1452 7.99064C14.1546 8.36564 14.1859 8.7422 14.239 9.11564C14.4531 10.1391 14.7546 11.1438 15.1452 12.1156L8.114 6.77189C7.99671 6.65764 7.85679 6.56924 7.70325 6.51238C7.5497 6.45552 7.38595 6.43147 7.22254 6.44178C7.05914 6.45208 6.8997 6.49651 6.75452 6.57221C6.60934 6.64791 6.48163 6.75319 6.37962 6.88126C6.30209 7.01088 6.25144 7.15478 6.23071 7.30438C6.20998 7.45399 6.21959 7.60623 6.25896 7.75205C6.29833 7.89786 6.36665 8.03425 6.45987 8.15309C6.55308 8.27193 6.66926 8.37079 6.8015 8.44376L10.3171 11.1L11.239 11.975L5.66087 7.74064C5.54906 7.62787 5.41433 7.54043 5.26581 7.48422C5.11728 7.42801 4.95842 7.40434 4.79996 7.41481C4.64151 7.42528 4.48714 7.46965 4.34731 7.54492C4.20748 7.62019 4.08543 7.72461 3.98943 7.85111C3.89342 7.97761 3.8257 8.12324 3.79083 8.27817C3.75596 8.4331 3.75475 8.59371 3.7873 8.74914C3.81985 8.90458 3.88539 9.05121 3.97949 9.17913C4.07359 9.30706 4.19406 9.41328 4.33275 9.49064L7.84837 12.1469L9.95775 13.7094L5.39525 10.2875C5.27796 10.1733 5.13804 10.0849 4.9845 10.028C4.83095 9.97115 4.6672 9.9471 4.50379 9.9574C4.34039 9.96771 4.18095 10.0121 4.03577 10.0878C3.89059 10.1635 3.76288 10.2688 3.66087 10.3969C3.1765 11.0219 3.56712 11.6625 4.06712 12.0531L7.58275 14.6938L9.34837 16.0219L5.83275 13.3656C5.72444 13.2477 5.59283 13.1536 5.44624 13.0892C5.29966 13.0248 5.14129 12.9915 4.98119 12.9915C4.82108 12.9915 4.66271 13.0248 4.51613 13.0892C4.36954 13.1536 4.23793 13.2477 4.12962 13.3656C4.03372 13.4993 3.96703 13.6516 3.93389 13.8128C3.90075 13.9739 3.9019 14.1402 3.93727 14.3008C3.97265 14.4615 4.04145 14.6129 4.1392 14.7452C4.23694 14.8775 4.36145 14.9878 4.50462 15.0688L10.9109 19.7563C11.839 20.4547 14.014 20.9156 15.1609 20.725" stroke="#165209" stroke-width="0.5" stroke-linecap="round" stroke-linejoin="round"/>
<path fill-rule="evenodd" clip-rule="evenodd" d="M23.0735 17.7934C22.7575 17.4551 22.513 17.0565 22.3548 16.6215C22.3548 16.2777 22.261 15.9496 22.1985 15.6059C22.1497 15.0063 21.9567 14.4274 21.636 13.9184C20.7304 12.8392 20.0837 11.5672 19.7454 10.1996C19.4954 9.37149 19.3235 9.07462 18.5891 9.05899C18.4397 9.07259 18.2944 9.11595 18.162 9.18653C18.0295 9.25711 17.9125 9.35347 17.8179 9.46996C17.7232 9.58644 17.6529 9.72068 17.6109 9.86478C17.5689 10.0089 17.5562 10.1599 17.5735 10.309C17.5844 10.684 17.6157 11.059 17.6673 11.434C17.9485 12.8715 18.2454 14.059 18.2766 14.1371L11.5735 9.12149C11.4574 9.00496 11.3178 8.91454 11.164 8.85626C11.0102 8.79798 10.8457 8.77319 10.6816 8.78354C10.5174 8.79389 10.3573 8.83915 10.2121 8.91629C10.0668 8.99343 9.93965 9.10068 9.83913 9.23087C9.76097 9.35954 9.70943 9.50259 9.68756 9.65154C9.66569 9.8005 9.67395 9.95232 9.71183 10.098C9.74971 10.2437 9.81646 10.3804 9.90811 10.4998C9.99976 10.6192 10.1144 10.7191 10.2454 10.7934L13.761 13.4496L14.8235 14.3246L9.19851 10.0902C9.08349 9.97283 8.94475 9.88128 8.79156 9.82171C8.63837 9.76214 8.47424 9.73592 8.31011 9.74479C8.14598 9.75366 7.98563 9.79743 7.83976 9.87316C7.69388 9.9489 7.56582 10.0549 7.46413 10.184C7.37265 10.3166 7.3103 10.4671 7.2812 10.6256C7.25209 10.7841 7.25689 10.9469 7.29527 11.1034C7.33365 11.2598 7.40474 11.4064 7.50387 11.5334C7.603 11.6604 7.72791 11.765 7.87038 11.8402L11.386 14.4965L13.4954 16.059L8.91725 12.6371C8.8003 12.5241 8.66081 12.437 8.50792 12.3816C8.35502 12.3262 8.19215 12.3036 8.02994 12.3154C7.86773 12.3272 7.70983 12.3731 7.56657 12.4501C7.4233 12.527 7.29788 12.6334 7.1985 12.7621C6.71413 13.3871 7.08913 14.0277 7.60476 14.4184L11.1204 17.0434L12.8704 18.3715L9.29226 15.7152C9.07286 15.5246 8.789 15.425 8.49861 15.4366C8.20822 15.4482 7.93322 15.5702 7.72976 15.7777C7.6341 15.9058 7.56603 16.0523 7.52985 16.2079C7.49366 16.3636 7.49013 16.5251 7.5195 16.6822C7.54886 16.8393 7.61048 16.9886 7.70045 17.1207C7.79043 17.2528 7.90681 17.3648 8.04225 17.4496L14.2923 22.1371C14.8141 22.5277 15.4173 22.7949 16.0579 22.9184L16.9641 23.059C17.4407 23.1293 17.9016 23.2824 18.3235 23.5121C18.6152 23.6546 18.9497 23.6825 19.261 23.5902C20.3599 23.2027 21.3213 22.502 22.0266 21.5746C22.6873 20.6614 23.0673 19.5755 23.1204 18.4496C23.16 18.2304 23.1439 18.0047 23.0735 17.7934Z" stroke="#165209" stroke-width="1.5" stroke-linecap="round" stroke-linejoin="round"/>
<path fill-rule="evenodd" clip-rule="evenodd" d="M23.1359 17.7152L22.4328 17.184C22.3549 16.0329 22.0856 14.9028 21.6359 13.8402C20.7274 12.763 20.0804 11.4902 19.7453 10.1215C19.4953 9.29337 19.3234 8.9965 18.589 8.98087C18.4395 8.99446 18.2943 9.03783 18.1619 9.1084C18.0294 9.17898 17.9124 9.27535 17.8178 9.39183C17.7231 9.50831 17.6527 9.64256 17.6108 9.78665C17.5688 9.93075 17.5561 10.0818 17.5734 10.2309C17.5843 10.6059 17.6156 10.9809 17.6671 11.3559C17.9484 12.809 18.2453 13.9965 18.2765 14.059L11.5734 9.04337C11.4561 8.92913 11.3162 8.84072 11.1626 8.78387C11.0091 8.72701 10.8453 8.70296 10.6819 8.71326C10.5185 8.72357 10.3591 8.768 10.2139 8.8437C10.0687 8.91939 9.94101 9.02467 9.83901 9.15275C9.35463 9.79337 9.74526 10.4184 10.2453 10.809L13.7609 13.4496L14.8234 14.3246L9.19838 10.0121C9.0811 9.89788 8.94118 9.80947 8.78763 9.75262C8.63409 9.69576 8.47034 9.67171 8.30693 9.68201C8.14352 9.69232 7.98409 9.73675 7.83891 9.81245C7.69372 9.88814 7.56601 9.99342 7.46401 10.1215C6.97963 10.7465 7.37026 11.3871 7.87026 11.7777L11.3859 14.4184L13.4953 15.9809L8.91713 12.559C8.80122 12.4451 8.6626 12.3569 8.51032 12.3002C8.35804 12.2435 8.19551 12.2195 8.03333 12.2298C7.87116 12.2402 7.71298 12.2845 7.56911 12.3601C7.42525 12.4357 7.29893 12.5407 7.19838 12.6684C7.10437 12.8002 7.03991 12.9507 7.0094 13.1097C6.9789 13.2687 6.98308 13.4324 7.02165 13.5897C7.06021 13.7469 7.13227 13.894 7.23288 14.0208C7.33349 14.1477 7.4603 14.2513 7.60463 14.3246L11.1203 16.9652L12.8703 18.2934L9.29213 15.6527C9.07621 15.4547 8.79073 15.3502 8.498 15.3619C8.20527 15.3736 7.92905 15.5006 7.72963 15.7152C7.6205 15.8436 7.54116 15.9946 7.49733 16.1573C7.4535 16.32 7.44627 16.4904 7.47615 16.6563C7.50603 16.8221 7.57228 16.9793 7.67014 17.1164C7.76801 17.2536 7.89505 17.3674 8.04213 17.4496L14.2921 22.1371C15.2397 22.7022 16.3145 23.0193 17.4171 23.059C17.8172 23.3035 18.235 23.5176 18.6671 23.6996C19.9207 23.4633 21.0377 22.7596 21.7921 21.7309C22.6157 20.5488 23.0821 19.1549 23.1359 17.7152Z" fill="#DDF6D1"/>
<path fill-rule="evenodd" clip-rule="evenodd" d="M23.0735 17.7934C22.7575 17.4551 22.513 17.0565 22.3548 16.6215C22.3548 16.2777 22.261 15.9496 22.1985 15.6059C22.1497 15.0063 21.9567 14.4274 21.636 13.9184C20.7304 12.8392 20.0837 11.5672 19.7454 10.1996C19.4954 9.37149 19.3235 9.07462 18.5891 9.05899C18.4397 9.07259 18.2944 9.11595 18.162 9.18653C18.0295 9.25711 17.9125 9.35347 17.8179 9.46996C17.7232 9.58644 17.6529 9.72068 17.6109 9.86478C17.5689 10.0089 17.5562 10.1599 17.5735 10.309C17.5844 10.684 17.6157 11.059 17.6673 11.434C17.9485 12.8715 18.2454 14.059 18.2766 14.1371L11.5735 9.12149C11.4574 9.00496 11.3178 8.91454 11.164 8.85626C11.0102 8.79798 10.8457 8.77319 10.6816 8.78354C10.5174 8.79389 10.3573 8.83915 10.2121 8.91629C10.0668 8.99343 9.93965 9.10068 9.83913 9.23087C9.76097 9.35954 9.70943 9.50259 9.68756 9.65154C9.66569 9.8005 9.67395 9.95232 9.71183 10.098C9.74971 10.2437 9.81646 10.3804 9.90811 10.4998C9.99976 10.6192 10.1144 10.7191 10.2454 10.7934L13.761 13.4496L14.8235 14.3246L9.19851 10.0902C9.08349 9.97283 8.94475 9.88128 8.79156 9.82171C8.63837 9.76214 8.47424 9.73592 8.31011 9.74479C8.14598 9.75366 7.98563 9.79743 7.83976 9.87316C7.69388 9.9489 7.56582 10.0549 7.46413 10.184C7.37265 10.3166 7.3103 10.4671 7.2812 10.6256C7.25209 10.7841 7.25689 10.9469 7.29527 11.1034C7.33365 11.2598 7.40474 11.4064 7.50387 11.5334C7.603 11.6604 7.72791 11.765 7.87038 11.8402L11.386 14.4965L13.4954 16.059L8.91725 12.6371C8.8003 12.5241 8.66081 12.437 8.50792 12.3816C8.35502 12.3262 8.19215 12.3036 8.02994 12.3154C7.86773 12.3272 7.70983 12.3731 7.56657 12.4501C7.4233 12.527 7.29788 12.6334 7.1985 12.7621C6.71413 13.3871 7.08913 14.0277 7.60476 14.4184L11.1204 17.0434L12.8704 18.3715L9.29226 15.7152C9.07286 15.5246 8.789 15.425 8.49861 15.4366C8.20822 15.4482 7.93322 15.5702 7.72976 15.7777C7.6341 15.9058 7.56603 16.0523 7.52985 16.2079C7.49366 16.3636 7.49013 16.5251 7.5195 16.6822C7.54886 16.8393 7.61048 16.9886 7.70045 17.1207C7.79043 17.2528 7.90681 17.3648 8.04225 17.4496L14.2923 22.1371C14.8141 22.5277 15.4173 22.7949 16.0579 22.9184L16.9641 23.059C17.4407 23.1293 17.9016 23.2824 18.3235 23.5121C18.6152 23.6546 18.9497 23.6825 19.261 23.5902C20.3599 23.2027 21.3213 22.502 22.0266 21.5746C22.6873 20.6614 23.0673 19.5755 23.1204 18.4496C23.16 18.2304 23.1439 18.0047 23.0735 17.7934Z" stroke="#165209" stroke-width="0.5" stroke-linecap="round" stroke-linejoin="round"/>
<path d="M11.7781 2.55156L10.764 4.98906M13.7953 4.40312L12.6547 5.84062L13.7953 4.40312ZM8.58435 2.53906L8.68591 4.40312L8.58435 2.53906Z" stroke="#165209" stroke-linecap="round" stroke-linejoin="round"/>
</g>
</svg>
