<svg width="25" height="25" viewBox="0 0 25 25" fill="none" xmlns="http://www.w3.org/2000/svg">
<path d="M12.5 23.4375C18.5406 23.4375 23.4375 18.5406 23.4375 12.5C23.4375 6.45939 18.5406 1.5625 12.5 1.5625C6.45939 1.5625 1.5625 6.45939 1.5625 12.5C1.5625 18.5406 6.45939 23.4375 12.5 23.4375Z" fill="#DF704D"/>
<path fill-rule="evenodd" clip-rule="evenodd" d="M12.0469 7.81257C11.6666 7.43132 11.2148 7.12883 10.7175 6.92244C10.2201 6.71606 9.68691 6.60982 9.14842 6.60982C8.60994 6.60982 8.07674 6.71606 7.57938 6.92244C7.08202 7.12883 6.63026 7.43132 6.24999 7.81257C5.86495 8.19713 5.55949 8.65382 5.35108 9.15652C5.14267 9.65922 5.0354 10.1981 5.0354 10.7423C5.0354 11.2865 5.14267 11.8253 5.35108 12.328C5.55949 12.8307 5.86495 13.2874 6.24999 13.6719L12.5 19.9219L18.75 13.6719C19.135 13.2874 19.4405 12.8307 19.6489 12.328C19.8573 11.8253 19.9646 11.2865 19.9646 10.7423C19.9646 10.1981 19.8573 9.65922 19.6489 9.15652C19.4405 8.65382 19.135 8.19713 18.75 7.81257C18.3722 7.43009 17.922 7.12671 17.4257 6.92013C16.9294 6.71356 16.3969 6.60794 15.8594 6.60945C15.3215 6.60619 14.7885 6.711 14.292 6.91768C13.7954 7.12435 13.3454 7.42867 12.9687 7.81257L12.5 8.28132L12.0469 7.81257Z" fill="#FFF3F0" stroke="#77280C"/>
<path fill-rule="evenodd" clip-rule="evenodd" d="M12.0468 7.8125C11.6687 7.42747 11.2176 7.12164 10.72 6.91287C10.2223 6.7041 9.68807 6.59657 9.1484 6.59657C8.60873 6.59657 8.07447 6.7041 7.57682 6.91287C7.07917 7.12164 6.62811 7.42747 6.24996 7.8125C5.49598 8.58579 5.07397 9.62309 5.07397 10.7031C5.07397 11.7832 5.49598 12.8205 6.24996 13.5937L12.5 19.8437L18.75 13.5937C19.504 12.8205 19.926 11.7832 19.926 10.7031C19.926 9.62309 19.504 8.58579 18.75 7.8125C18.373 7.4279 17.9233 7.12208 17.427 6.91286C16.9308 6.70363 16.3979 6.59516 15.8593 6.59375C15.3205 6.59341 14.7871 6.70108 14.2906 6.91041C13.7941 7.11975 13.3446 7.42648 12.9687 7.8125L12.5 8.20313L12.0468 7.8125Z" stroke="#77280C" stroke-linecap="round" stroke-linejoin="round"/>
</svg>
