<svg width="25" height="25" viewBox="0 0 25 25" fill="none" xmlns="http://www.w3.org/2000/svg">
<path d="M23.4375 12.5C23.4375 6.45939 18.5406 1.5625 12.5 1.5625C6.45939 1.5625 1.5625 6.45939 1.5625 12.5C1.5625 18.5406 6.45939 23.4375 12.5 23.4375C18.5406 23.4375 23.4375 18.5406 23.4375 12.5Z" fill="#DEB8DC"/>
<path d="M20.3125 12.5C20.3125 8.18528 16.8147 4.6875 12.5 4.6875C8.18528 4.6875 4.6875 8.18528 4.6875 12.5C4.6875 16.8147 8.18528 20.3125 12.5 20.3125C16.8147 20.3125 20.3125 16.8147 20.3125 12.5Z" fill="#F9F0F8" stroke="#523951"/>
<mask id="mask0_4488_9154" style="mask-type:alpha" maskUnits="userSpaceOnUse" x="3" y="3" width="19" height="19">
<path d="M12.5 21.0938C10.2216 21.0913 8.03715 20.1851 6.42604 18.574C4.81494 16.9629 3.90873 14.7784 3.90625 12.5C3.90625 7.76094 7.7625 3.90625 12.5 3.90625C17.2375 3.90625 21.0938 7.76094 21.0938 12.5C21.0938 17.2391 17.2375 21.0938 12.5 21.0938Z" fill="white"/>
</mask>
<g mask="url(#mask0_4488_9154)">
<path fill-rule="evenodd" clip-rule="evenodd" d="M10.0032 9.92188C9.8698 9.92187 9.73773 9.94815 9.61451 9.99919C9.49129 10.0502 9.37933 10.125 9.28502 10.2193C9.19071 10.3137 9.1159 10.4256 9.06486 10.5488C9.01382 10.6721 8.98755 10.8041 8.98755 10.9375C8.98755 11.0709 9.01382 11.2029 9.06486 11.3262C9.1159 11.4494 9.19071 11.5613 9.28502 11.6557C9.37933 11.75 9.49129 11.8248 9.61451 11.8758C9.73773 11.9269 9.8698 11.9531 10.0032 11.9531C10.2725 11.9531 10.5309 11.8461 10.7213 11.6557C10.9118 11.4652 11.0188 11.2069 11.0188 10.9375C11.0188 10.6681 10.9118 10.4098 10.7213 10.2193C10.5309 10.0289 10.2725 9.92188 10.0032 9.92188ZM15.0532 10.8844C14.9198 10.8844 14.7877 10.9106 14.6645 10.9617C14.5413 11.0127 14.4293 11.0875 14.335 11.1818C14.2407 11.2762 14.1659 11.3881 14.1149 11.5113C14.0638 11.6346 14.0375 11.7666 14.0375 11.9C14.0375 12.0334 14.0638 12.1654 14.1149 12.2887C14.1659 12.4119 14.2407 12.5238 14.335 12.6182C14.4293 12.7125 14.5413 12.7873 14.6645 12.8383C14.7877 12.8894 14.9198 12.9156 15.0532 12.9156C15.3225 12.9156 15.5809 12.8086 15.7713 12.6182C15.9618 12.4277 16.0688 12.1694 16.0688 11.9C16.0688 11.6306 15.9618 11.3723 15.7713 11.1818C15.5809 10.9914 15.3225 10.8844 15.0532 10.8844Z" fill="#523951" stroke="#523951" stroke-width="0.1"/>
<path d="M14.4375 9.08448C14.7969 8.95635 15.1954 8.95635 15.5547 9.08448C15.9266 9.17041 16.25 9.38135 16.4657 9.67823M8.98755 7.82354C9.25942 7.56729 9.62505 7.41573 10.0094 7.39541C10.3938 7.34229 10.7829 7.42666 11.1032 7.62979L8.98755 7.82354Z" stroke="#523951" stroke-width="0.9" stroke-linecap="round" stroke-linejoin="round"/>
<path fill-rule="evenodd" clip-rule="evenodd" d="M12.6719 15.5779C12.785 15.5572 12.9012 15.5603 13.0131 15.5869C13.125 15.6136 13.2302 15.6632 13.3219 15.7326C13.5094 15.8732 13.6344 16.0857 13.6687 16.3232C13.6973 16.5517 13.641 16.7828 13.5105 16.9726C13.38 17.1624 13.1845 17.2977 12.9609 17.3529L10.7812 17.7357C10.9687 17.7045 11.1609 17.7529 11.3125 17.8717C11.4673 17.9917 11.5684 18.168 11.5937 18.3623C11.6253 18.5501 11.586 18.7429 11.4836 18.9034C11.3811 19.0639 11.2227 19.1806 11.039 19.231C11.2422 19.3404 11.3828 19.5435 11.4203 19.7779C11.4483 19.9538 11.4166 20.134 11.3302 20.2898C11.2439 20.4456 11.1078 20.5679 10.9437 20.6373C11.0579 20.789 11.1114 20.9779 11.0937 21.167C11.078 21.3467 11.0025 21.5159 10.8793 21.6476C10.7561 21.7793 10.5923 21.8659 10.414 21.8935L10.1609 21.9498C9.50467 22.0982 8.84217 22.2123 8.17498 22.2904C7.41562 22.3013 6.65696 22.2396 5.90936 22.106C5.65335 22.047 5.41714 21.9223 5.22398 21.7442C5.03082 21.5661 4.88739 21.3408 4.8078 21.0904C4.31248 20.0201 4.04217 17.9951 4.64842 17.4092C5.25623 16.8248 5.15155 16.9717 5.44217 16.2763C5.73123 15.5826 6.03592 14.7857 6.26717 14.1045C6.49842 13.4263 6.58905 13.1201 7.01873 12.9545C7.2292 12.8915 7.45569 12.9105 7.65276 13.0076C7.84983 13.1047 8.00289 13.2727 8.08123 13.4779C8.14373 13.9498 8.12342 14.431 8.01561 14.8935C7.90623 15.8373 7.90311 16.0545 8.01561 16.3763L12.6719 15.5795V15.5779Z" stroke="#523951" stroke-width="1.152" stroke-linecap="round" stroke-linejoin="round"/>
<path d="M7.46873 16.4842L12.6719 15.5779C12.785 15.5572 12.9012 15.5603 13.0131 15.5869C13.125 15.6136 13.2302 15.6632 13.3219 15.7326C13.5094 15.8732 13.6344 16.0857 13.6687 16.3232C13.6973 16.5517 13.641 16.7828 13.5105 16.9726C13.38 17.1624 13.1845 17.2977 12.9609 17.3529L10.7812 17.7357C10.9687 17.7045 11.1609 17.7529 11.3125 17.8717C11.4673 17.9917 11.5684 18.168 11.5937 18.3623C11.6253 18.5501 11.586 18.7429 11.4836 18.9034C11.3811 19.0639 11.2227 19.1806 11.039 19.231C11.2422 19.3404 11.3828 19.5435 11.4203 19.7779C11.4483 19.9538 11.4166 20.134 11.3302 20.2898C11.2439 20.4456 11.1078 20.5679 10.9437 20.6373C11.0579 20.789 11.1114 20.9779 11.0937 21.167C11.078 21.3467 11.0025 21.5159 10.8793 21.6476C10.7561 21.7793 10.5923 21.8659 10.414 21.8935L10.1609 21.9498C9.50467 22.0982 8.84217 22.2123 8.17498 22.2904C7.41562 22.3013 6.65696 22.2396 5.90936 22.106C5.65335 22.047 5.41714 21.9223 5.22398 21.7442C5.03082 21.5661 4.88739 21.3408 4.8078 21.0904C4.31248 20.0201 4.04217 17.9951 4.64842 17.4092C5.25623 16.8248 5.15155 16.9717 5.44217 16.2763C5.73123 15.5826 6.03592 14.7857 6.26717 14.1045C6.49842 13.4263 6.58905 13.1201 7.01873 12.9545C7.2292 12.8915 7.45569 12.9105 7.65276 13.0076C7.84983 13.1047 8.00289 13.2727 8.08123 13.4779C8.14373 13.9498 8.12342 14.431 8.01561 14.8935C7.90623 15.8373 7.90311 16.0545 8.01561 16.3763" fill="#F9F0F8"/>
<path fill-rule="evenodd" clip-rule="evenodd" d="M12.6719 15.5779C12.785 15.5572 12.9012 15.5603 13.0131 15.5869C13.125 15.6136 13.2302 15.6632 13.3219 15.7326C13.5094 15.8732 13.6344 16.0857 13.6687 16.3232C13.6973 16.5517 13.641 16.7828 13.5105 16.9726C13.38 17.1624 13.1845 17.2977 12.9609 17.3529L10.7812 17.7357C10.9687 17.7045 11.1609 17.7529 11.3125 17.8717C11.4673 17.9917 11.5684 18.168 11.5937 18.3623C11.6253 18.5501 11.586 18.7429 11.4836 18.9034C11.3811 19.0639 11.2227 19.1806 11.039 19.231C11.2422 19.3404 11.3828 19.5435 11.4203 19.7779C11.4483 19.9538 11.4166 20.134 11.3302 20.2898C11.2439 20.4456 11.1078 20.5679 10.9437 20.6373C11.0579 20.789 11.1114 20.9779 11.0937 21.167C11.078 21.3467 11.0025 21.5159 10.8793 21.6476C10.7561 21.7793 10.5923 21.8659 10.414 21.8935L10.1609 21.9498C9.50467 22.0982 8.84217 22.2123 8.17498 22.2904C7.41562 22.3013 6.65696 22.2396 5.90936 22.106C5.65335 22.047 5.41714 21.9223 5.22398 21.7442C5.03082 21.5661 4.88739 21.3408 4.8078 21.0904C4.31248 20.0201 4.04217 17.9951 4.64842 17.4092C5.25623 16.8248 5.15155 16.9717 5.44217 16.2763C5.73123 15.5826 6.03592 14.7857 6.26717 14.1045C6.49842 13.4263 6.58905 13.1201 7.01873 12.9545C7.2292 12.8915 7.45569 12.9105 7.65276 13.0076C7.84983 13.1047 8.00289 13.2727 8.08123 13.4779C8.14373 13.9498 8.12342 14.431 8.01561 14.8935C7.90623 15.8373 7.90311 16.0545 8.01561 16.3763L12.6719 15.5795V15.5779Z" stroke="#523951" stroke-width="0.5" stroke-linecap="round" stroke-linejoin="round"/>
</g>
</svg>
